<svg xmlns="http://www.w3.org/2000/svg" width="110.848" height="34.492" viewBox="0 0 110.848 34.492"><g id="Group_1390" data-name="Group 1390" transform="translate(-131.454 -97.23)"><g id="Group_117" data-name="Group 117" transform="translate(131.454 106.788)"><g id="Path_91" data-name="Path 91"><g id="Group_453" data-name="Group 453"><path id="Path_246" data-name="Path 246" d="M2834.228,847.5h-4.609V833.8a6.572,6.572,0,0,0-13.144-.083V847.5h-4.609V833.8a11.18,11.18,0,1,1,22.361-.108V847.5Z" transform="translate(-2811.866 -822.564)" fill="#13BCC3"></path></g></g></g><g id="Group_118" data-name="Group 118" transform="translate(160.114 106.798)"><g id="Path_92" data-name="Path 92"><g id="Group_454" data-name="Group 454"><path id="Path_247" data-name="Path 247" d="M2852.523,847.441a11.193,11.193,0,0,1-11.18-11.18V822.574h4.609v13.687a6.571,6.571,0,1,0,13.142,0V822.574h4.609v13.687A11.191,11.191,0,0,1,2852.523,847.441Z" transform="translate(-2841.344 -822.574)" fill="#13BCC3"></path></g></g></g><g id="Group_119" data-name="Group 119" transform="translate(217.517 106.881)"><g id="Path_93" data-name="Path 93"><g id="Group_455" data-name="Group 455"><path id="Path_248" data-name="Path 248" d="M2912.777,847.443a12.392,12.392,0,1,1,12.393-12.393h0A12.407,12.407,0,0,1,2912.777,847.443Zm0-20.176a7.784,7.784,0,1,0,7.785,7.783,7.783,7.783,0,0,0-7.785-7.783Z" transform="translate(-2900.384 -822.659)" fill="#13BCC3"></path></g></g></g><g id="Group_885" data-name="Group 885" transform="translate(188.771 97.23)"><path id="Path_249" data-name="Path 249" d="M2883.21,822.384a12.268,12.268,0,0,0-7.783,2.829v-12.48h-4.609v22.788h.075a12.367,12.367,0,1,0,12.317-13.138Zm0,20.176a7.784,7.784,0,1,1,7.785-7.784A7.784,7.784,0,0,1,2883.21,842.559Z" transform="translate(-2870.818 -812.733)" fill="#13BCC3"></path></g></g></svg>