<svg xmlns="http://www.w3.org/2000/svg" xmlns:xlink="http://www.w3.org/1999/xlink" width="385" height="385" viewBox="0 0 385 385"><defs><linearGradient id="linear-gradient" x1="0.874" y1="0.967" x2="0.202" y2="0.093" gradientUnits="objectBoundingBox"><stop offset="0" stop-color="#f1f7f7"></stop><stop offset="1" stop-color="#b7f3f3"></stop></linearGradient></defs><g id="Group_2938" data-name="Group 2938" transform="translate(-1178 -6895.994)"><g id="Group_1486" data-name="Group 1486" transform="translate(5015 311.994)" opacity="0.4"><circle id="Ellipse_38" data-name="Ellipse 38" cx="192.5" cy="192.5" r="192.5" transform="translate(-3837 6584)" fill="#fff"></circle><circle id="Ellipse_37" data-name="Ellipse 37" cx="180.5" cy="180.5" r="180.5" transform="translate(-3825 6596)" fill="url(#linear-gradient)"></circle><g id="Group_1485" data-name="Group 1485" transform="translate(-3806.285 6616.536)"><path id="Path_2086" data-name="Path 2086" d="M-4649.4,7175.361s-48.172-103.454,41.6-172.6c90.9-65.7,174.035,9.084,174.035,9.084" transform="translate(4685.312 -6951.408)" fill="none" stroke="#20b7b7" stroke-width="3"></path><path id="Path_2087" data-name="Path 2087" d="M12.909,199.616s-48.172-103.454,41.6-172.6c90.9-65.7,174.035,9.084,174.035,9.084" transform="translate(295.176 299.352) rotate(180)" fill="none" stroke="#20b7b7" stroke-width="3"></path><path id="Path_2088" data-name="Path 2088" d="M14.951,231.2S-40.841,111.376,63.128,31.29C168.409-44.8,264.695,41.81,264.695,41.81" transform="translate(0 319.927) rotate(-90)" fill="none" stroke="#20b7b7" stroke-width="3"></path><path id="Path_2089" data-name="Path 2089" d="M14.951,231.2S-40.841,111.376,63.128,31.29C168.409-44.8,264.695,41.81,264.695,41.81" transform="translate(323.57 8.068) rotate(92)" fill="none" stroke="#20b7b7" stroke-width="3"></path><g id="Ellipse_32" data-name="Ellipse 32" transform="translate(247.467 56.796)" fill="none" stroke="#20b7b7" stroke-width="2"><circle cx="11.095" cy="11.095" r="11.095" stroke="none"></circle><circle cx="11.095" cy="11.095" r="10.095" fill="none"></circle></g><g id="Ellipse_33" data-name="Ellipse 33" transform="translate(70.709 266.893) rotate(180)" fill="none" stroke="#20b7b7" stroke-width="2"><circle cx="11.095" cy="11.095" r="11.095" stroke="none"></circle><circle cx="11.095" cy="11.095" r="10.095" fill="none"></circle></g><g id="Ellipse_34" data-name="Ellipse 34" transform="translate(38.702 58.841) rotate(-90)" fill="none" stroke="#20b7b7" stroke-width="2"><circle cx="10.631" cy="10.631" r="10.631" stroke="none"></circle><circle cx="10.631" cy="10.631" r="9.631" fill="none"></circle></g><g id="Ellipse_35" data-name="Ellipse 35" transform="translate(275.78 267.645) rotate(92)" fill="none" stroke="#20b7b7" stroke-width="2"><circle cx="10.631" cy="10.631" r="10.631" stroke="none"></circle><circle cx="10.631" cy="10.631" r="9.631" fill="none"></circle></g></g></g><path id="Path_4184" data-name="Path 4184" d="M1167.036,371.675a6.956,6.956,0,1,0-6.962,6.951,6.972,6.972,0,0,0,6.962-6.951ZM1056.908,374.5a16.677,16.677,0,0,0-14.748,8.859,2.59,2.59,0,0,1-2.292,1.386,2.709,2.709,0,0,1-1.229-.3,2.6,2.6,0,0,1-1.074-3.523,22.272,22.272,0,0,1,5.169-6.42h-40.062A18,18,0,0,0,984.7,392.477a16.9,16.9,0,0,0,10.078,15.372,22,22,0,0,1,7.472-12.8,2.6,2.6,0,1,1,3.345,3.991,16,16,0,0,0,10.693,28.473,16.939,16.939,0,0,0,3.951-.48,2.568,2.568,0,0,1,1.969.3,2.614,2.614,0,0,1,1.188,1.626,16.8,16.8,0,0,0,11.776,12.277,25.13,25.13,0,0,1-.177-2.668,21.908,21.908,0,0,1,5.461-14.455,2.6,2.6,0,0,1,3.908,3.439,16.7,16.7,0,0,0-3.4,15.966l.021.073a16.685,16.685,0,0,0,32.6-5.024V391.184a16.7,16.7,0,0,0-16.685-16.685Zm-54.237-5.211h40.062a22.14,22.14,0,0,1-5.169-6.42,2.6,2.6,0,1,1,4.6-2.439,16.692,16.692,0,0,0,31.433-7.827V305.2a16.685,16.685,0,0,0-32.6-5.013l-.021.073a16.49,16.49,0,0,0-.75,4.95,16.669,16.669,0,0,0,4.148,11.016,2.612,2.612,0,0,1-1.959,4.325,2.628,2.628,0,0,1-1.96-.886A21.906,21.906,0,0,1,1035,305.2a22.45,22.45,0,0,1,.177-2.657,16.817,16.817,0,0,0-11.787,12.266,2.638,2.638,0,0,1-1.178,1.626,2.584,2.584,0,0,1-1.981.313,16.251,16.251,0,0,0-3.949-.479,16,16,0,0,0-10.683,28.473,2.6,2.6,0,0,1-3.345,3.991,21.946,21.946,0,0,1-7.472-12.8,16.863,16.863,0,0,0-10.089,15.31,18.028,18.028,0,0,0,17.978,18.041ZM1127.506,399.2a6.951,6.951,0,1,0,6.952-6.951A6.957,6.957,0,0,0,1127.506,399.2Zm-9.3,39.614a6.953,6.953,0,1,0,6.733,8.754,6.865,6.865,0,0,0-.708-5.273,6.934,6.934,0,0,0-6.024-3.481Zm-3.46-135.2a6.95,6.95,0,1,0-2.543-9.495,6.951,6.951,0,0,0,2.543,9.495Zm12.756,38.8a6.951,6.951,0,1,0,6.952-6.962,6.964,6.964,0,0,0-6.952,6.962Zm44.721,29.265a12.146,12.146,0,0,1-24.012,2.606h-77.4a21.921,21.921,0,0,1,7.4,11.923H1104.6a2.6,2.6,0,0,1,1.834.75l9.651,9.651h6.5a12.157,12.157,0,1,1,0,5.2H1115a2.61,2.61,0,0,1-1.845-.761l-9.64-9.64H1078.8v11.912h20.781a2.612,2.612,0,0,1,1.845.761l18.645,18.645a2.636,2.636,0,0,1,.76,1.845V433.9a12.149,12.149,0,1,1-8.681,1.334,11.573,11.573,0,0,1,3.46-1.344V425.64L1098.5,408.516h-19.7v30.057a21.889,21.889,0,0,1-42.156,8.285,22.1,22.1,0,0,1-17.623-14.32,19.921,19.921,0,0,1-2.731.177,22.07,22.07,0,0,1-21.761-19.385,22.13,22.13,0,0,1-15.039-20.792,23.256,23.256,0,0,1,12.549-20.656,23.156,23.156,0,0,1-12.549-20.573,22.163,22.163,0,0,1,15.039-20.865,22.07,22.07,0,0,1,21.761-19.385,21.755,21.755,0,0,1,2.731.177,22.1,22.1,0,0,1,17.623-14.32A21.891,21.891,0,0,1,1078.8,305.2v29.63h19.7l17.113-17.123v-8.265a11.833,11.833,0,0,1-3.46-1.334,12.206,12.206,0,1,1,8.681,1.323v9.359a2.629,2.629,0,0,1-.76,1.834l-18.645,18.645a2.622,2.622,0,0,1-1.845.771H1078.8v11.9h24.054l11.391-11.391a2.678,2.678,0,0,1,1.845-.761h6.493a12.163,12.163,0,1,1,0,5.211h-5.41L1105.787,356.4a2.607,2.607,0,0,1-1.835.761h-25.638a21.847,21.847,0,0,1-7.035,11.912h76.935a12.152,12.152,0,0,1,24.022,2.616ZM1051.822,402.92a2.6,2.6,0,0,1,3.575,3.783,21.754,21.754,0,0,1-20.729,5.263,22.017,22.017,0,0,1-15.893-17.259,2.605,2.605,0,0,1,5.128-.928,16.7,16.7,0,0,0,27.92,9.14ZM1036,337.48a16.765,16.765,0,0,0-12.1,13.142,2.6,2.6,0,0,1-2.554,2.147,2.363,2.363,0,0,1-.469-.042,2.6,2.6,0,0,1-2.1-3.033,21.992,21.992,0,0,1,15.883-17.248,21.761,21.761,0,0,1,20.74,5.263,2.6,2.6,0,0,1-3.575,3.783A16.57,16.57,0,0,0,1036,337.48Z" transform="translate(289.383 6716.6)" fill="#88c9ca" fill-rule="evenodd"></path></g></svg>